# AST/ASF file generated using VICON BodyLanguage
# -----------------------------------------------
:version 1.10
:name VICON
:units
  mass 1.0
  length 0.45
  angle deg
:documentation
   .ast/.asf automatically generated from VICON data using
   VICON BodyBuilder and BodyLanguage model FoxedUp or BRILLIANT.MOD
:root
   order TX TY TZ RX RY RZ
   axis XYZ
   position 0 0 0  
   orientation 0 0 0 
:bonedata
  begin
     id 1 
     name lhipjoint
     direction 0.645893 -0.654526 0.392961 
     length 2.38111 
     axis 0 0 0  XYZ
  end
  begin
     id 2 
     name lfemur
     direction 0.34202 -0.939693 0  
     length 6.6822  
     axis 0 0 20  XYZ
    dof rx ry rz
    limits (-160.0 20.0)
           (-70.0 70.0)
           (-60.0 70.0)
  end
  begin
     id 3 
     name ltibia
     direction 0.34202 -0.939693 0   
     length 6.93904   
     axis 0 0 20   XYZ
    dof rx
    limits (-10.0 170.0)
  end
  begin
     id 4 
     name lfoot
     direction 0.0694967 -0.190941 0.979138   
     length 2.13616   
     axis -90 7.62852e-016 20   XYZ
    dof rx rz
    limits (-45.0 90.0)
           (-70.0 20.0)
  end
  begin
     id 5 
     name ltoes
     direction 1.535e-011 -4.2202e-011 1   
     length 1.07536   
     axis -90 7.62852e-016 20   XYZ
    dof rx
    limits (-90.0 20.0)
  end
  begin
     id 6 
     name rhipjoint
     direction -0.700219 -0.612087 0.367481   
     length 2.54621  
     axis 0 0 0  XYZ 
  end
  begin
     id 7 
     name rfemur
     direction -0.34202 -0.939693 0   
     length 6.55353   
     axis 0 0 -20   XYZ
    dof rx ry rz
    limits (-160.0 20.0)
           (-70.0 70.0)
           (-70.0 60.0)
  end
  begin
     id 8 
     name rtibia
     direction -0.34202 -0.939693 0   
     length 6.8736   
     axis 0 0 -20   XYZ
    dof rx
    limits (-10.0 170.0)
 end
 begin
     id 9 
     name rfoot
     direction -0.0679995 -0.186827 0.980037   
     length 2.1218  
     axis -90 -7.62852e-016 -20   XYZ
    dof rx rz
    limits (-45.0 90.0)
           (-20.0 70.0)
  end
  begin
     id 10 
     name rtoes
     direction -1.53589e-011 -4.21772e-011 1   
     length 1.06864   
     axis -90 -7.62852e-016 -20   XYZ
    dof rx
    limits (-90.0 20.0)
  end
  begin
     id 11 
     name lowerback
     direction -0.0416607 0.996347 -0.0745409   
     length 2.12205   
     axis 0 0 0   XYZ
    dof rx ry rz
    limits (-20.0 45.0)
           (-30.0 30.0)
           (-30.0 30.0)
  end
  begin
     id 12 
     name upperback
     direction -0.000153993 0.999276 -0.0380568   
     length 2.12759   
     axis 0 0 0   XYZ
    dof rx ry rz
    limits (-20.0 45.0)
           (-30.0 30.0)
           (-30.0 30.0)
  end
  begin
     id 13 
     name thorax
     direction 0.0187671 0.999821 -0.00241421   
     length 2.13704   
     axis 0 0 0   XYZ
    dof rx ry rz
    limits (-20.0 45.0)
           (-30.0 30.0)
           (-30.0 30.0)
  end
  begin
     id 14 
     name lowerneck
     direction 0.0268157 0.964865 0.261374   
     length 1.65253   
     axis 0 0 0   XYZ
    dof rx ry rz
    limits (-20.0 45.0)
           (-30.0 30.0)
           (-30.0 30.0)
  end
  begin
     id 15 
     name upperneck
     direction 0.00263774 0.939908 -0.341418   
     length 1.72375   
     axis 0 0 0   XYZ
    dof rx ry rz
    limits (-20.0 45.0)
           (-30.0 30.0)
           (-30.0 30.0)
  end
  begin
     id 16
     name head
     direction -0.00526001 0.989001 -0.147818  
     length 1.74878  
     axis 0 0 0   XYZ
    dof rx ry rz
    limits (-20.0 45.0)
           (-30.0 30.0)
           (-30.0 30.0)
  end
  begin
     id 17 
     name lclavicle
     direction 0.881214 0.461162 -0.103884  
     length 3.25108  
     axis 0 0 0   XYZ
    dof ry rz
    limits (-20.0 10.0)
           (0.0 20.0)
  end
  begin
     id 18 
     name lhumerus
     direction 1 -4.4899e-011 3.38092e-027   
     length 4.87408   
     axis 180 -30 -90   XYZ
    dof rx ry rz
    limits (-60.0 90.0)
           (-90.0 90.0)
           (-90.0 90.0)
  end
  begin
     id 19
     name lradius
     direction 1 -4.48931e-011 9.96288e-027   
     length 2.76729   
     axis 180 -30 -90   XYZ
    dof rx
    limits (-10.0 170.0)
  end
  begin
     id 20
     name lwrist
     direction 1 -4.4896e-011 1.50617e-026   
     length 1.38364   
     axis -9.31234e-015 90 90   XYZ
    dof ry
    limits (-180.0 0.0)
 end
  begin
     id 21 
     name lhand
     direction 1 -4.49038e-011 3.01286e-026   
     length 0.98922   
     axis -1.92217e-014 90 90   XYZ
    dof rx rz
    limits (-90.0 90.0)
           (-45.0 45.0)
  end
  begin
     id 22 
     name lfingers
     direction 1 -4.49051e-011 6.02588e-026   
     length 0.797535   
     axis -3.84436e-014 90 90   XYZ
    dof rx
    limits (0.0 90.0)
  end
  begin
     id 23
     name lthumb
     direction 0.707107 -6.34901e-011 0.707107   
     length 1.14511   
     axis -90 45 2.19363e-014   XYZ
    dof rx rz
    limits (-45.0 45.0)
           (-45.0 45.0)
  end
  begin
     id 24 
     name rclavicle
     direction -0.893894 0.441652 -0.0767889   
     length 3.29361  
     axis 0 0 0   XYZ 
    dof ry rz
    limits (-10.0 20.0)
           (-20.0 0.0)
  end
  begin
     id 25 
     name rhumerus
     direction -1 -4.48945e-011 8.0491e-028  
     length 4.71404   
     axis 180 30 90   XYZ
    dof rx ry rz
    limits (-90.0 60.0)
           (-90.0 90.0)
           (-90.0 90.0)
  end
  begin
     id 26 
     name rradius
     direction -1 -4.48986e-011 9.27795e-027   
     length 2.83468   
     axis 180 30 90   XYZ
    dof rx
    limits (-10.0 170.0)
  end
  begin
     id 27 
     name rwrist
     direction -1 -4.49029e-011 1.5064e-026   
     length 1.41734   
     axis -9.31234e-015 -90 -90   XYZ
    dof ry
    limits (-180.0 0.0)
  end
  begin
     id 28
     name rhand
     direction -1 -4.48857e-011 3.01165e-026   
     length 0.868195   
     axis -1.92217e-014 -90 -90   XYZ
    dof rx rz
    limits (-90.0 90.0)
           (-45.0 45.0)
  end
  begin
     id 29
     name rfingers
     direction -1 -4.49048e-011 6.02585e-026   
     length 0.699961   
     axis -3.84436e-014 -90 -90   XYZ
    dof rx
    limits (0.0 90.0)
  end
  begin
     id 30
     name rthumb
     direction -0.707107 -6.34854e-011 0.707107   
     length 1.00501   
     axis -90 -45 -2.19363e-014   XYZ
    dof rx rz
    limits (-45.0 45.0)
           (-45.0 45.0)
  end
:hierarchy
  begin
    root lhipjoint rhipjoint lowerback
    lhipjoint lfemur
    lfemur ltibia
    ltibia lfoot
    lfoot ltoes
    rhipjoint rfemur
    rfemur rtibia
    rtibia rfoot
    rfoot rtoes
    lowerback upperback
    upperback thorax
    thorax lowerneck lclavicle rclavicle
    lowerneck upperneck
    upperneck head
    lclavicle lhumerus
    lhumerus lradius
    lradius lwrist
    lwrist lhand lthumb
    lhand lfingers
    rclavicle rhumerus
    rhumerus rradius
    rradius rwrist
    rwrist rhand rthumb
    rhand rfingers
  end

#!OML:ASF H:\ManfredObstacles\Project 1\Capture day 2\Session 1\male.ASF
:FULLY-SPECIFIED
:DEGREES
166
root 1.22071 16.2872 -15.0329 -172.964 5.07546 173.862
lowerback -0.238522 -6.88043 -9.02157
upperback 2.21626 -8.89389 -0.721623
thorax 3.70893 -4.59632 3.82053
lowerneck -25.4325 3.32535 8.19033
upperneck 46.3298 11.702 -6.21136
head 28.6613 6.40544 -1.12952
rclavicle -3.8763e-015 -3.57812e-015
rhumerus -71.9945 3.22764 -78.1674
rradius 69.1161
rwrist 5.50544
rhand -8.53606 -3.01393
rfingers 7.12502
rthumb 17.393 -32.2557
lclavicle -3.8763e-015 -3.57812e-015
lhumerus -35.4926 -33.2944 89.8003
lradius 90.7239
lwrist -21.284
lhand -13.2202 3.84989
lfingers 7.12502
lthumb 12.8809 33.4324
rfemur -47.0648 4.2573 13.7927
rtibia 42.6806
rfoot 7.70542 -14.8914
rtoes -19.9702
lfemur 2.15053 -2.38392 -31.3704
ltibia 31.9172
lfoot 22.957 3.42766
ltoes -16.2099
167
root 1.24755 16.3618 -15.3638 -172.584 5.04627 173.836
lowerback -1.04575 -7.0104 -8.92479
upperback 1.94246 -9.02237 -0.582453
thorax 3.89794 -4.66483 3.81665
lowerneck -25.2478 3.32916 8.3227
upperneck 46.4299 11.9424 -6.42978
head 28.8736 6.53048 -1.21108
rclavicle 4.48259e-014 3.61788e-014
rhumerus -72.6934 3.31487 -77.8229
rradius 70.2053
rwrist 5.27774
rhand -8.41976 -2.86492
rfingers 7.12502
rthumb 17.5049 -32.0968
lclavicle 4.48259e-014 3.61788e-014
lhumerus -37.2159 -33.7123 90.8523
lradius 90.8923
lwrist -21.0192
lhand -12.9826 3.93647
lfingers 7.12502
lthumb 13.11 33.5044
rfemur -46.8025 3.97397 13.9873
rtibia 40.7913
rfoot 8.45099 -14.1759
rtoes -20.4833
lfemur 3.16676 -2.4462 -31.3957
ltibia 30.6005
lfoot 25.4099 2.72543
ltoes -13.867
168
root 1.27678 16.4264 -15.6934 -172.209 5.02539 173.76
lowerback -1.86467 -7.11486 -8.90496
upperback 1.67507 -9.10833 -0.463928
thorax 4.10395 -4.71166 3.83227
lowerneck -25.1229 3.30779 8.42425
upperneck 46.5374 12.1175 -6.59966
head 29.103 6.63107 -1.27552
rclavicle -3.19546e-014 2.28602e-014
rhumerus -73.3469 3.41091 -77.5363
rradius 71.254
rwrist 5.14822
rhand -8.3237 -2.72793
rfingers 7.12502
rthumb 17.5974 -31.9516
lclavicle -3.19546e-014 2.28602e-014
lhumerus -38.9495 -34.0932 91.9357
lradius 91.025
lwrist -20.8313
lhand -12.7751 3.99369
lfingers 7.12502
lthumb 13.31 33.5486
rfemur -46.5919 3.67925 14.154
rtibia 39.3225
rfoot 9.03316 -13.4398
rtoes -21.0477
lfemur 4.02906 -2.43127 -31.4278
ltibia 29.5569
lfoot 27.7912 2.12799
ltoes -11.203
169
root 1.30849 16.4801 -16.0207 -171.859 5.02519 173.641
lowerback -2.66385 -7.18736 -8.95352
upperback 1.4228 -9.14394 -0.374953
thorax 4.31438 -4.73245 3.85948
lowerneck -25.0788 3.25932 8.49176
upperneck 46.6568 12.2118 -6.70689
head 29.3587 6.70111 -1.31745
rclavicle 4.58199e-014 -1.43125e-014
rhumerus -73.9526 3.5002 -77.3233
rradius 72.27
rwrist 5.08371
rhand -8.25198 -2.59909
rfingers 7.12502
rthumb 17.6664 -31.8165
lclavicle 4.58199e-014 -1.43125e-014
lhumerus -40.682 -34.4502 93.0209
lradius 91.1312
lwrist -20.7214
lhand -12.593 3.98772
lfingers 7.12502
lthumb 13.4855 33.5311
rfemur -46.4041 3.4139 14.2877
rtibia 38.2558
rfoot 9.54585 -12.7311
rtoes -21.5574
lfemur 4.72752 -2.36512 -31.4684
ltibia 28.8274
lfoot 30.0692 1.58391
ltoes -8.56455
170
root 1.34205 16.5219 -16.3449 -171.548 5.04209 173.502
lowerback -3.41192 -7.22852 -9.04267
upperback 1.18277 -9.13434 -0.310033
thorax 4.5052 -4.72901 3.89462
lowerneck -25.0655 3.19004 8.50924
upperneck 46.7777 12.238 -6.74599
head 29.5859 6.74162 -1.3274
rclavicle -2.47238e-014 1.19271e-014
rhumerus -74.5128 3.58528 -77.178
rradius 73.243
rwrist 5.07968
rhand -8.19507 -2.48845
rfingers 7.12502
rthumb 17.7211 -31.7009
lclavicle -2.47238e-014 1.19271e-014
lhumerus -42.4338 -34.7616 94.1208
lradius 91.2317
lwrist -20.6572
lhand -12.4334 3.90262
lfingers 7.12502
lthumb 13.6393 33.4358
rfemur -46.1905 3.20583 14.3958
rtibia 37.5533
rfoot 10.0644 -12.1445
rtoes -21.8935
lfemur 5.25102 -2.27274 -31.5041
ltibia 28.4554
lfoot 32.2077 1.05186
ltoes -6.17687
171
root 1.37683 16.5512 -16.6643 -171.286 5.05126 173.356
lowerback -4.0774 -7.24674 -9.15933
upperback 0.967044 -9.09423 -0.266976
thorax 4.6715 -4.70916 3.93543
lowerneck -25.103 3.11853 8.52636
upperneck 46.8805 12.2055 -6.75354
head 29.7908 6.75944 -1.33617
rclavicle 2.85504e-014 -2.66371e-014
rhumerus -74.9904 3.67122 -77.1194
rradius 74.1584
rwrist 5.08483
rhand -8.18274 -2.3874
rfingers 7.12502
rthumb 17.733 -31.5988
lclavicle 2.85504e-014 -2.66371e-014
lhumerus -44.169 -35.0167 95.1995
lradius 91.3285
lwrist -20.6544
lhand -12.3102 3.73573
lfingers 7.12502
lthumb 13.758 33.2609
rfemur -45.9035 3.0473 14.4847
rtibia 37.1532
rfoot 10.668 -11.7563
rtoes -22.0176
lfemur 5.57403 -2.16974 -31.5233
ltibia 28.4929
lfoot 34.1823 0.514727
ltoes -4.06898
172
root 1.41185 16.5675 -16.979 -171.097 5.04542 173.225
lowerback -4.61925 -7.23936 -9.27574
upperback 0.773979 -9.02758 -0.241049
thorax 4.78506 -4.67417 3.97762
lowerneck -25.1741 3.04086 8.51549
upperneck 46.9692 12.1139 -6.71259
head 29.9526 6.7503 -1.32755
rclavicle 9.96408e-015 -2.18663e-015
rhumerus -75.39 3.77214 -77.1464
rradius 75.0151
rwrist 5.08091
rhand -8.21482 -2.30112
rfingers 7.12502
rthumb 17.7021 -31.5153
lclavicle 9.96408e-015 -2.18663e-015
lhumerus -45.8945 -35.2005 96.2616
lradius 91.4234
lwrist -20.7003
lhand -12.2307 3.50207
lfingers 7.12502
lthumb 13.8347 33.022
rfemur -45.4841 2.9396 14.5706
rtibia 36.9931
rfoot 11.391 -11.5911
rtoes -21.9663
lfemur 5.70879 -2.05232 -31.5145
ltibia 28.9722
lfoot 35.9439 0.0122137
ltoes -2.28323
